REM MD5 7c2b5585c7439a28fd03131a330131ec
FILE "Official U.S. PlayStation Magazine Demo Disc 04 (USA).bin" BINARY
  TRACK 01 MODE2/2352
    INDEX 01 00:00:00
  TRACK 02 AUDIO
    INDEX 00 18:47:67
    INDEX 01 18:49:67
  TRACK 03 AUDIO
    INDEX 00 21:19:73
    INDEX 01 21:21:73
REM LEADOUT 21:27:69
